<svg xmlns="http://www.w3.org/2000/svg" width="1200" height="700" viewBox="0 0 1200 700"><defs>
    <filter id="shadow" x="-5%" y="-5%" width="115%" height="115%">
      <feDropShadow dx="0" dy="4" stdDeviation="12" flood-color="#000" flood-opacity="0.08"/>
    </filter>
    <filter id="shadow-sm" x="-5%" y="-5%" width="115%" height="115%">
      <feDropShadow dx="0" dy="2" stdDeviation="6" flood-color="#000" flood-opacity="0.06"/>
    </filter>
    <linearGradient id="bg-grad" x1="0" y1="0" x2="1" y2="1">
      <stop offset="0%" stop-color="#f0f9f7"/>
      <stop offset="100%" stop-color="#f8fafb"/>
    </linearGradient>
  </defs><rect width="1200" height="700" fill="url(#bg-grad)" rx="16"/><rect x="30" y="30" width="370" height="640" rx="12" fill="#ffffff" filter="url(#shadow)"/><rect x="30" y="30" width="370" height="52" rx="12" fill="#ffffff"/><rect x="30" y="70" width="370" height="12" fill="#ffffff"/><line x1="30" y1="82" x2="400" y2="82" stroke="#e2e8ec" stroke-width="1"/><circle cx="54" cy="56" r="10" fill="#1A7A6A" opacity="0.12"/><text x="54" y="60" text-anchor="middle" font-size="12" fill="#1A7A6A" font-family="Inter,system-ui,sans-serif">&#x2713;</text><text x="72" y="61" font-size="13" font-weight="700" fill="#1e293b" font-family="Inter,system-ui,sans-serif">Treatment Recommendations</text><rect x="46" y="94" width="338" height="36" rx="8" fill="#f1f4f6"/><text x="58" y="116" font-size="11" fill="#475569" font-family="Inter,system-ui,sans-serif">Patient: Female, 52  |  Low Energy, Weight Gain  |  TSH: 3.8</text><rect x="46" y="145" width="338" height="72" rx="8" fill="#ffffff" stroke="#e2e8ec" stroke-width="1"/><rect x="56" y="155" width="24" height="24" rx="6" fill="#1A7A6A" opacity="0.12"/><text x="68" y="172" text-anchor="middle" font-size="12" font-weight="700" fill="#1A7A6A" font-family="Inter,system-ui,sans-serif">1</text><text x="90" y="172" font-size="12" font-weight="600" fill="#1e293b" font-family="Inter,system-ui,sans-serif">BioTE Hormone Pellet</text><text x="90" y="192" font-size="10" fill="#94a3b2" font-family="Inter,system-ui,sans-serif">Success Rate:</text><text x="160" y="192" font-size="10" font-weight="700" fill="#1A7A6A" font-family="Inter,system-ui,sans-serif">87%</text><text x="200" y="192" font-size="10" fill="#94a3b2" font-family="Inter,system-ui,sans-serif">Confidence:</text><text x="265" y="192" font-size="10" font-weight="600" fill="#475569" font-family="Inter,system-ui,sans-serif">High</text><rect x="290" y="182" width="70" height="18" rx="9" fill="#f1f4f6"/><text x="325" y="195" text-anchor="middle" font-size="9" fill="#475569" font-family="Inter,system-ui,sans-serif">2,670 pts</text><rect x="90" y="201" width="278" height="4" rx="2" fill="#f1f4f6"/><rect x="90" y="201" width="241.86" height="4" rx="2" fill="#1A7A6A" opacity="0.7"/><rect x="46" y="227" width="338" height="72" rx="8" fill="#ffffff" stroke="#e2e8ec" stroke-width="1"/><rect x="56" y="237" width="24" height="24" rx="6" fill="#1A7A6A" opacity="0.12"/><text x="68" y="254" text-anchor="middle" font-size="12" font-weight="700" fill="#1A7A6A" font-family="Inter,system-ui,sans-serif">2</text><text x="90" y="254" font-size="12" font-weight="600" fill="#1e293b" font-family="Inter,system-ui,sans-serif">Testosterone Cypionate IM</text><text x="90" y="274" font-size="10" fill="#94a3b2" font-family="Inter,system-ui,sans-serif">Success Rate:</text><text x="160" y="274" font-size="10" font-weight="700" fill="#1A7A6A" font-family="Inter,system-ui,sans-serif">79%</text><text x="200" y="274" font-size="10" fill="#94a3b2" font-family="Inter,system-ui,sans-serif">Confidence:</text><text x="265" y="274" font-size="10" font-weight="600" fill="#475569" font-family="Inter,system-ui,sans-serif">High</text><rect x="290" y="264" width="70" height="18" rx="9" fill="#f1f4f6"/><text x="325" y="277" text-anchor="middle" font-size="9" fill="#475569" font-family="Inter,system-ui,sans-serif">2,416 pts</text><rect x="90" y="283" width="278" height="4" rx="2" fill="#f1f4f6"/><rect x="90" y="283" width="219.62" height="4" rx="2" fill="#1A7A6A" opacity="0.7"/><rect x="46" y="309" width="338" height="72" rx="8" fill="#ffffff" stroke="#e2e8ec" stroke-width="1"/><rect x="56" y="319" width="24" height="24" rx="6" fill="#D4A843" opacity="0.12"/><text x="68" y="336" text-anchor="middle" font-size="12" font-weight="700" fill="#D4A843" font-family="Inter,system-ui,sans-serif">3</text><text x="90" y="336" font-size="12" font-weight="600" fill="#1e293b" font-family="Inter,system-ui,sans-serif">Semaglutide 0.5mg</text><text x="90" y="356" font-size="10" fill="#94a3b2" font-family="Inter,system-ui,sans-serif">Success Rate:</text><text x="160" y="356" font-size="10" font-weight="700" fill="#D4A843" font-family="Inter,system-ui,sans-serif">73%</text><text x="200" y="356" font-size="10" fill="#94a3b2" font-family="Inter,system-ui,sans-serif">Confidence:</text><text x="265" y="356" font-size="10" font-weight="600" fill="#475569" font-family="Inter,system-ui,sans-serif">Med</text><rect x="290" y="346" width="70" height="18" rx="9" fill="#f1f4f6"/><text x="325" y="359" text-anchor="middle" font-size="9" fill="#475569" font-family="Inter,system-ui,sans-serif">754 pts</text><rect x="90" y="365" width="278" height="4" rx="2" fill="#f1f4f6"/><rect x="90" y="365" width="202.94" height="4" rx="2" fill="#D4A843" opacity="0.7"/><rect x="46" y="391" width="338" height="72" rx="8" fill="#ffffff" stroke="#e2e8ec" stroke-width="1"/><rect x="56" y="401" width="24" height="24" rx="6" fill="#D4A843" opacity="0.12"/><text x="68" y="418" text-anchor="middle" font-size="12" font-weight="700" fill="#D4A843" font-family="Inter,system-ui,sans-serif">4</text><text x="90" y="418" font-size="12" font-weight="600" fill="#1e293b" font-family="Inter,system-ui,sans-serif">Thyroid (NP Thyroid)</text><text x="90" y="438" font-size="10" fill="#94a3b2" font-family="Inter,system-ui,sans-serif">Success Rate:</text><text x="160" y="438" font-size="10" font-weight="700" fill="#D4A843" font-family="Inter,system-ui,sans-serif">68%</text><text x="200" y="438" font-size="10" fill="#94a3b2" font-family="Inter,system-ui,sans-serif">Confidence:</text><text x="265" y="438" font-size="10" font-weight="600" fill="#475569" font-family="Inter,system-ui,sans-serif">Med</text><rect x="290" y="428" width="70" height="18" rx="9" fill="#f1f4f6"/><text x="325" y="441" text-anchor="middle" font-size="9" fill="#475569" font-family="Inter,system-ui,sans-serif">412 pts</text><rect x="90" y="447" width="278" height="4" rx="2" fill="#f1f4f6"/><rect x="90" y="447" width="189.04" height="4" rx="2" fill="#D4A843" opacity="0.7"/><rect x="46" y="580" width="338" height="36" rx="8" fill="#1A7A6A" opacity="0.06"/><text x="58" y="602" font-size="10" fill="#1A7A6A" font-family="Inter,system-ui,sans-serif">&#9432;  Based on 847 similar patients (72% match score)</text><text x="46" y="640" font-size="8" fill="#94a3b2" font-family="Inter,system-ui,sans-serif">AI-generated recommendation — clinical judgment required</text><rect x="420" y="30" width="380" height="300" rx="12" fill="#ffffff" filter="url(#shadow)"/><line x1="420" y1="78" x2="800" y2="78" stroke="#e2e8ec" stroke-width="1"/><text x="436" y="61" font-size="13" font-weight="700" fill="#1e293b" font-family="Inter,system-ui,sans-serif">Lab Trends — Testosterone</text><circle cx="680" cy="57" r="4" fill="#1A7A6A"/><text x="688" y="61" font-size="9" fill="#475569" font-family="Inter,system-ui,sans-serif">Total T</text><circle cx="740" cy="57" r="4" fill="#D4A843"/><text x="748" y="61" font-size="9" fill="#475569" font-family="Inter,system-ui,sans-serif">Free T</text><line x1="445" y1="90" x2="790" y2="90" stroke="#e2e8ec" stroke-width="0.5" stroke-dasharray="3,3"/><line x1="445" y1="137.5" x2="790" y2="137.5" stroke="#e2e8ec" stroke-width="0.5" stroke-dasharray="3,3"/><line x1="445" y1="185" x2="790" y2="185" stroke="#e2e8ec" stroke-width="0.5" stroke-dasharray="3,3"/><line x1="445" y1="232.5" x2="790" y2="232.5" stroke="#e2e8ec" stroke-width="0.5" stroke-dasharray="3,3"/><line x1="445" y1="280" x2="790" y2="280" stroke="#e2e8ec" stroke-width="0.5" stroke-dasharray="3,3"/><rect x="445" y="118.5" width="345" height="47.5" fill="#1A7A6A" opacity="0.08" rx="2"/><text x="788" y="143.2" text-anchor="end" font-size="7" fill="#1A7A6A" opacity="0.6" font-family="Inter,system-ui,sans-serif">optimal</text><path d="M 445 204 L 496.75 194.5 L 548.5 175.5 L 600.25 156.5 L 652 147 L 703.75 137.5 L 755.5 128 L 790 124.19999999999999" fill="none" stroke="#1A7A6A" stroke-width="2.5" stroke-linecap="round" stroke-linejoin="round"/><path d="M 445 242 L 496.75 232.5 L 548.5 223 L 600.25 204 L 652 194.5 L 703.75 181.2 L 755.5 169.8 L 790 162.2" fill="none" stroke="#D4A843" stroke-width="2.5" stroke-linecap="round" stroke-linejoin="round"/><circle cx="790" cy="124.19999999999999" r="4" fill="#1A7A6A" stroke="#ffffff" stroke-width="2"/><circle cx="790" cy="162.2" r="4" fill="#D4A843" stroke="#ffffff" stroke-width="2"/><text x="445" y="305" text-anchor="middle" font-size="8" fill="#94a3b2" font-family="Inter,system-ui,sans-serif">Jun</text><text x="494.2857142857143" y="305" text-anchor="middle" font-size="8" fill="#94a3b2" font-family="Inter,system-ui,sans-serif">Aug</text><text x="543.5714285714286" y="305" text-anchor="middle" font-size="8" fill="#94a3b2" font-family="Inter,system-ui,sans-serif">Oct</text><text x="592.8571428571429" y="305" text-anchor="middle" font-size="8" fill="#94a3b2" font-family="Inter,system-ui,sans-serif">Dec</text><text x="642.1428571428571" y="305" text-anchor="middle" font-size="8" fill="#94a3b2" font-family="Inter,system-ui,sans-serif">Feb</text><text x="691.4285714285714" y="305" text-anchor="middle" font-size="8" fill="#94a3b2" font-family="Inter,system-ui,sans-serif">Apr</text><text x="740.7142857142858" y="305" text-anchor="middle" font-size="8" fill="#94a3b2" font-family="Inter,system-ui,sans-serif">Jun</text><text x="790" y="305" text-anchor="middle" font-size="8" fill="#94a3b2" font-family="Inter,system-ui,sans-serif">Aug</text><rect x="420" y="350" width="380" height="155" rx="12" fill="#ffffff" filter="url(#shadow)"/><line x1="420" y1="398" x2="800" y2="398" stroke="#e2e8ec" stroke-width="1"/><circle cx="444" cy="374" r="10" fill="#fef3c7"/><text x="444" y="378" text-anchor="middle" font-size="11" fill="#D4A843" font-family="Inter,system-ui,sans-serif">!</text><text x="462" y="380" font-size="13" font-weight="700" fill="#1e293b" font-family="Inter,system-ui,sans-serif">Safety Monitoring</text><text x="440" y="422" font-size="11" fill="#334155" font-family="Inter,system-ui,sans-serif">Hematocrit 52.1%</text><rect x="710" y="410" width="70" height="18" rx="9" fill="#D4A843" opacity="0.12"/><text x="745" y="423" text-anchor="middle" font-size="9" font-weight="600" fill="#D4A843" font-family="Inter,system-ui,sans-serif">Attention</text><text x="440" y="444" font-size="11" fill="#334155" font-family="Inter,system-ui,sans-serif">PSA 1.2 ng/mL</text><rect x="710" y="432" width="70" height="18" rx="9" fill="#1A7A6A" opacity="0.12"/><text x="745" y="445" text-anchor="middle" font-size="9" font-weight="600" fill="#1A7A6A" font-family="Inter,system-ui,sans-serif">Normal</text><text x="440" y="466" font-size="11" fill="#334155" font-family="Inter,system-ui,sans-serif">Estradiol 48 pg/mL</text><rect x="710" y="454" width="70" height="18" rx="9" fill="#1A7A6A" opacity="0.12"/><text x="745" y="467" text-anchor="middle" font-size="9" font-weight="600" fill="#1A7A6A" font-family="Inter,system-ui,sans-serif">Normal</text><text x="440" y="488" font-size="11" fill="#334155" font-family="Inter,system-ui,sans-serif">ALT 28 U/L</text><rect x="710" y="476" width="70" height="18" rx="9" fill="#1A7A6A" opacity="0.12"/><text x="745" y="489" text-anchor="middle" font-size="9" font-weight="600" fill="#1A7A6A" font-family="Inter,system-ui,sans-serif">Normal</text><rect x="820" y="30" width="350" height="300" rx="12" fill="#ffffff" filter="url(#shadow)"/><line x1="820" y1="78" x2="1170" y2="78" stroke="#e2e8ec" stroke-width="1"/><text x="836" y="61" font-size="13" font-weight="700" fill="#1e293b" font-family="Inter,system-ui,sans-serif">Treatment Success by Type</text><line x1="850" y1="295" x2="1170" y2="295" stroke="#e2e8ec" stroke-width="1"/><rect x="855" y="142" width="69" height="153" rx="3" fill="#1A7A6A" opacity="0.85"/><text x="889.5" y="309" text-anchor="middle" font-size="9" fill="#94a3b2" font-family="Inter,system-ui,sans-serif">Pellet</text><text x="889.5" y="137" text-anchor="middle" font-size="10" fill="#475569" font-weight="600" font-family="Inter,system-ui,sans-serif">85%</text><rect x="932" y="165.4" width="69" height="129.6" rx="3" fill="#1A7A6A" opacity="0.85"/><text x="966.5" y="309" text-anchor="middle" font-size="9" fill="#94a3b2" font-family="Inter,system-ui,sans-serif">Injectable</text><text x="966.5" y="160.4" text-anchor="middle" font-size="10" fill="#475569" font-weight="600" font-family="Inter,system-ui,sans-serif">72%</text><rect x="1009" y="190.60000000000002" width="69" height="104.39999999999999" rx="3" fill="#D4A843" opacity="0.85"/><text x="1043.5" y="309" text-anchor="middle" font-size="9" fill="#94a3b2" font-family="Inter,system-ui,sans-serif">Oral</text><text x="1043.5" y="185.60000000000002" text-anchor="middle" font-size="10" fill="#475569" font-weight="600" font-family="Inter,system-ui,sans-serif">58%</text><rect x="1086" y="214" width="69" height="81" rx="3" fill="#D4A843" opacity="0.85"/><text x="1120.5" y="309" text-anchor="middle" font-size="9" fill="#94a3b2" font-family="Inter,system-ui,sans-serif">Topical</text><text x="1120.5" y="209" text-anchor="middle" font-size="10" fill="#475569" font-weight="600" font-family="Inter,system-ui,sans-serif">45%</text><rect x="820" y="350" width="350" height="320" rx="12" fill="#ffffff" filter="url(#shadow)"/><line x1="820" y1="398" x2="1170" y2="398" stroke="#e2e8ec" stroke-width="1"/><text x="836" y="381" font-size="13" font-weight="700" fill="#1e293b" font-family="Inter,system-ui,sans-serif">Chart Summary</text><text x="840" y="418" font-size="10" fill="#94a3b2" font-family="Inter,system-ui,sans-serif">Journey</text><text x="920" y="418" font-size="11" fill="#334155" font-family="Inter,system-ui,sans-serif">4 years, 21 encounters</text><text x="840" y="446" font-size="10" fill="#94a3b2" font-family="Inter,system-ui,sans-serif">Primary Dx</text><text x="920" y="446" font-size="11" fill="#334155" font-family="Inter,system-ui,sans-serif">Hypothyroidism, Fatigue</text><text x="840" y="474" font-size="10" fill="#94a3b2" font-family="Inter,system-ui,sans-serif">Current Tx</text><text x="920" y="474" font-size="11" fill="#334155" font-family="Inter,system-ui,sans-serif">Pellet + NP Thyroid</text><text x="840" y="502" font-size="10" fill="#94a3b2" font-family="Inter,system-ui,sans-serif">Response</text><text x="920" y="502" font-size="11" fill="#334155" font-family="Inter,system-ui,sans-serif">Positive — energy improved</text><text x="840" y="530" font-size="10" fill="#94a3b2" font-family="Inter,system-ui,sans-serif">Labs</text><text x="920" y="530" font-size="11" fill="#334155" font-family="Inter,system-ui,sans-serif">Total T: 142 → 680 ng/dL</text><text x="840" y="558" font-size="10" fill="#94a3b2" font-family="Inter,system-ui,sans-serif">Next Visit</text><text x="920" y="558" font-size="11" fill="#334155" font-family="Inter,system-ui,sans-serif">March 28, 2026</text><text x="840" y="595" font-size="10" font-weight="600" fill="#475569" font-family="Inter,system-ui,sans-serif">Symptom Tracking</text><text x="840" y="619" font-size="9" fill="#94a3b2" font-family="Inter,system-ui,sans-serif">Energy</text><rect x="892" y="611" width="240" height="8" rx="4" fill="#f1f4f6"/><rect x="892" y="611" width="192" height="8" rx="4" fill="#1A7A6A" opacity="0.6"/><text x="840" y="637" font-size="9" fill="#94a3b2" font-family="Inter,system-ui,sans-serif">Sleep</text><rect x="892" y="629" width="240" height="8" rx="4" fill="#f1f4f6"/><rect x="892" y="629" width="156" height="8" rx="4" fill="#1A7A6A" opacity="0.6"/><text x="840" y="655" font-size="9" fill="#94a3b2" font-family="Inter,system-ui,sans-serif">Libido</text><rect x="892" y="647" width="240" height="8" rx="4" fill="#f1f4f6"/><rect x="892" y="647" width="168" height="8" rx="4" fill="#D4A843" opacity="0.6"/><text x="840" y="673" font-size="9" fill="#94a3b2" font-family="Inter,system-ui,sans-serif">Weight</text><rect x="892" y="665" width="240" height="8" rx="4" fill="#f1f4f6"/><rect x="892" y="665" width="108" height="8" rx="4" fill="#D4A843" opacity="0.6"/><rect x="420" y="525" width="380" height="145" rx="12" fill="#ffffff" filter="url(#shadow)"/><line x1="420" y1="573" x2="800" y2="573" stroke="#e2e8ec" stroke-width="1"/><text x="436" y="556" font-size="13" font-weight="700" fill="#1e293b" font-family="Inter,system-ui,sans-serif">Similar Patients (72% match)</text><rect x="436" y="585" width="36" height="16" rx="4" fill="#1A7A6A" opacity="0.1"/><text x="454" y="597" text-anchor="middle" font-size="9" font-weight="600" fill="#1A7A6A" font-family="Inter,system-ui,sans-serif">F-48</text><text x="482" y="597" font-size="10" fill="#334155" font-family="Inter,system-ui,sans-serif">Pellet + Thyroid</text><rect x="680" y="585" width="55" height="16" rx="8" fill="#1A7A6A" opacity="0.1"/><text x="708" y="597" text-anchor="middle" font-size="8" font-weight="600" fill="#1A7A6A" font-family="Inter,system-ui,sans-serif">Optimal</text><text x="750" y="597" font-size="9" fill="#94a3b2" font-family="Inter,system-ui,sans-serif">14mo</text><rect x="436" y="609" width="36" height="16" rx="4" fill="#1A7A6A" opacity="0.1"/><text x="454" y="621" text-anchor="middle" font-size="9" font-weight="600" fill="#1A7A6A" font-family="Inter,system-ui,sans-serif">F-55</text><text x="482" y="621" font-size="10" fill="#334155" font-family="Inter,system-ui,sans-serif">Pellet + Semaglutide</text><rect x="680" y="609" width="55" height="16" rx="8" fill="#1A7A6A" opacity="0.1"/><text x="708" y="621" text-anchor="middle" font-size="8" font-weight="600" fill="#1A7A6A" font-family="Inter,system-ui,sans-serif">Improved</text><text x="750" y="621" font-size="9" fill="#94a3b2" font-family="Inter,system-ui,sans-serif">8mo</text><rect x="436" y="633" width="36" height="16" rx="4" fill="#1A7A6A" opacity="0.1"/><text x="454" y="645" text-anchor="middle" font-size="9" font-weight="600" fill="#1A7A6A" font-family="Inter,system-ui,sans-serif">F-51</text><text x="482" y="645" font-size="10" fill="#334155" font-family="Inter,system-ui,sans-serif">Injectable + Thyroid</text><rect x="680" y="633" width="55" height="16" rx="8" fill="#1A7A6A" opacity="0.1"/><text x="708" y="645" text-anchor="middle" font-size="8" font-weight="600" fill="#1A7A6A" font-family="Inter,system-ui,sans-serif">Optimal</text><text x="750" y="645" font-size="9" fill="#94a3b2" font-family="Inter,system-ui,sans-serif">22mo</text></svg>